<svg width="21" fill="#ffffff" height="17" xmlns="http://www.w3.org/2000/svg">

 <g>
  <title>background</title>
  <rect fill="none" id="canvas_background" height="19" width="23" y="-1" x="-1"/>
 </g>
 <g>
  <title>Layer 1</title>
  <path id="svg_1" fill="none" d="m0,0l24,0l0,24l-24,0l0,-24z"/>
  <path id="svg_2" d="m18.507633,0.617285l-16.000007,0c-1.1,0 -1.99,0.9 -1.99,2l-0.01,12.000003c0,1.100011 0.9,2.000013 2,2.000013l16.000007,0c1.1,0 2,-0.900002 2,-2.000013l0,-12.000003c0,-1.1 -0.9,-2 -2,-2zm0,14.000003l-16.000007,0l0,-10.000003l7.999993,4.999984l8.000014,-4.999984l0,10.000003zm-8.000014,-7.000017l-7.999993,-4.999986l16.000007,0l-8.000014,4.999986z"/>
 </g>
</svg>