<?xml version="1.0" encoding="utf-8"?>
<!-- Generator: Adobe Illustrator 19.2.1, SVG Export Plug-In . SVG Version: 6.00 Build 0)  -->
<svg version="1.1" id="Layer_1" xmlns="http://www.w3.org/2000/svg" xmlns:xlink="http://www.w3.org/1999/xlink" x="0px" y="0px"
	 viewBox="0 0 101 31" style="enable-background:new 0 0 101 31;" xml:space="preserve">

<g>
	<path style="fill:#ffffff;fill-rule:evenodd;clip-rule:evenodd;" d="M3.4,26c0.3-0.2,0.9-0.4,0.9-1.3c0-1.4-1.1-1.5-2-1.5H1c-0.1,0-0.2,0-0.2,0.2v5.4C0.8,29,0.8,29,1,29h1.4
		c1.1,0,2.1-0.2,2.1-1.6C4.5,26.4,3.8,26.1,3.4,26z M1.9,24.1h0.4c0.5,0,0.8,0.2,0.8,0.7c0,0.7-0.4,0.8-0.9,0.8H1.9V24.1z M2.3,28.1
		H1.9v-1.6h0.3c0.6,0,1.1,0.1,1.1,0.8C3.3,28,2.8,28.1,2.3,28.1z"/>
	<path style="fill:#ffffff;fill-rule:evenodd;clip-rule:evenodd;" d="M8.6,24.9c0-0.1,0-0.2-0.1-0.2c0,0-0.1,0-0.1,0l-0.7,0.1c-0.1,0-0.2,0-0.2,0.2v3c-0.1,0.1-0.4,0.3-0.7,0.3
		c-0.4,0-0.5-0.4-0.5-0.7v-2.7c0-0.1,0-0.2-0.1-0.2c0,0-0.1,0-0.1,0l-0.7,0.1c-0.1,0-0.2,0-0.2,0.2v2.9c0,1,0.6,1.2,1.1,1.2
		c0.7,0,1.1-0.3,1.3-0.5c0.1,0.3,0.2,0.5,0.3,0.5c0,0,0.1,0,0.1,0l0.6-0.2c0.1,0,0.1-0.1,0.1-0.1c0-0.2-0.2-0.1-0.2-1.3V24.9z"/>
	<path style="fill:#ffffff;fill-rule:evenodd;clip-rule:evenodd;" d="M10.5,22.9c-0.4,0-0.7,0.3-0.7,0.7s0.3,0.7,0.7,0.7c0.4,0,0.7-0.3,0.7-0.7S10.9,22.9,10.5,22.9z"/>
	<path style="fill:#ffffff;fill-rule:evenodd;clip-rule:evenodd;" d="M10.9,24.8H9.3c-0.1,0-0.1,0-0.1,0.1v0.5c0,0.1,0,0.1,0.1,0.1H10v3.3c0,0.1,0,0.1,0.1,0.1h0.8
		c0.1,0,0.1,0,0.1-0.1V25C11,24.9,11,24.8,10.9,24.8z"/>
	<path style="fill:#ffffff;fill-rule:evenodd;clip-rule:evenodd;" d="M13.8,28.1C13.8,28.1,13.8,28.1,13.8,28.1c-0.1,0-0.2,0-0.4,0c-0.2,0-0.2-0.2-0.2-0.5v-4.6
		c0-0.1,0-0.2-0.1-0.2c0,0-0.1,0-0.1,0l-0.7,0.1c-0.1,0-0.2,0-0.2,0.2v4.3c0,0.8,0,1.6,1,1.6c0.4,0,0.8-0.1,0.8-0.2c0,0,0,0,0-0.1
		L13.8,28.1z"/>
	<path style="fill:#ffffff;fill-rule:evenodd;clip-rule:evenodd;" d="M17.7,23.1c0-0.1,0-0.2-0.1-0.2c0,0-0.1,0-0.1,0l-0.7,0.1c-0.1,0-0.2,0-0.2,0.2v1.7c-0.1-0.1-0.3-0.3-0.8-0.3
		c-1,0-1.6,0.8-1.6,2.4c0,1.3,0.5,2,1.4,2c0.6,0,1-0.4,1.1-0.5c0,0.2,0.2,0.5,0.2,0.5c0,0,0.1,0,0.1,0l0.6-0.3c0,0,0.1,0,0.1-0.1
		c0-0.2-0.2-0.3-0.2-1.1V23.1z M16.6,28c-0.1,0.1-0.2,0.3-0.6,0.3c-0.5,0-0.7-0.4-0.7-1.4c0-0.9,0.1-1.4,0.8-1.4
		c0.4,0,0.5,0.1,0.6,0.2V28z"/>
	<path style="fill:#ffffff;fill-rule:evenodd;clip-rule:evenodd;" d="M19.5,22.9c-0.4,0-0.7,0.3-0.7,0.7s0.3,0.7,0.7,0.7c0.4,0,0.7-0.3,0.7-0.7S19.9,22.9,19.5,22.9z"/>
	<path style="fill:#ffffff;fill-rule:evenodd;clip-rule:evenodd;" d="M19.9,24.8h-1.6c-0.1,0-0.1,0-0.1,0.1v0.5c0,0.1,0,0.1,0.1,0.1H19v3.3c0,0.1,0,0.1,0.1,0.1h0.8
		c0.1,0,0.1,0,0.1-0.1V25C20,24.9,20,24.8,19.9,24.8z"/>
	<path style="fill:#ffffff;fill-rule:evenodd;clip-rule:evenodd;" d="M23.4,24.7c-0.7,0-1,0.4-1.3,0.6c-0.1-0.4-0.2-0.6-0.3-0.6c0,0-0.1,0-0.1,0l-0.6,0.2C21,24.9,21,25,21,25
		c0,0.2,0.2,0.1,0.2,1.3v2.5c0,0.1,0,0.1,0.1,0.1h0.8c0.1,0,0.1,0,0.1-0.1v-2.9c0.1-0.1,0.4-0.3,0.7-0.3c0.4,0,0.5,0.4,0.5,0.7v2.6
		c0,0.1,0,0.1,0.1,0.1h0.8c0.1,0,0.1,0,0.1-0.1v-2.9C24.5,24.9,23.8,24.7,23.4,24.7z"/>
	<path style="fill:#ffffff;fill-rule:evenodd;clip-rule:evenodd;" d="M28.8,25C28.8,25,28.8,25,28.8,25l-0.7-0.3c0,0-0.1,0-0.1,0c-0.1,0-0.3,0.3-0.3,0.4c-0.2-0.1-0.4-0.4-1-0.4
		c-1,0-1.6,0.8-1.6,2.2c0,1.3,0.5,2.1,1.4,2.1c0.6,0,0.9-0.2,1-0.3c0,0.1,0,0.3,0,0.6c0,0.5-0.1,0.7-0.7,0.7c-0.7,0-1.3-0.3-1.4-0.3
		c0,0-0.1,0-0.1,0.1l-0.2,0.5c0,0.1,0,0.1,0,0.2c0,0.2,1.1,0.4,1.7,0.4c1.2,0,1.6-0.6,1.6-1.5c0-0.5,0-1.3,0-1.9v-1.3
		C28.6,25.4,28.8,25.1,28.8,25z M27.6,27.8c-0.1,0.1-0.3,0.3-0.7,0.3c-0.5,0-0.7-0.5-0.7-1.2c0-0.8,0.2-1.3,0.7-1.3
		c0.4,0,0.6,0.2,0.7,0.3V27.8z"/>
	<path style="fill:#ffffff;fill-rule:evenodd;clip-rule:evenodd;" d="M35.7,23.2H35c-0.1,0-0.2,0-0.2,0.2v2.7c0,0.2,0,0.8,0,1.1h0c-0.1-0.3-0.3-0.8-0.5-1.2L33,23.3
		c-0.1-0.1-0.1-0.1-0.2-0.1h-0.7c-0.1,0-0.2,0-0.2,0.2v5.4c0,0.2,0,0.2,0.2,0.2h0.6c0.1,0,0.2,0,0.2-0.2v-3c0-0.4,0-0.8,0-0.9h0
		c0.1,0.4,0.2,0.7,0.5,1.1l1.5,2.9C35,29,35,29,35.1,29h0.6c0.2,0,0.2,0,0.2-0.2v-5.4C35.8,23.3,35.8,23.2,35.7,23.2z"/>
	<path style="fill:#ffffff;fill-rule:evenodd;clip-rule:evenodd;" d="M38.5,24.7c-1.1,0-1.8,0.9-1.8,2.3c0,1.5,0.8,2.2,1.9,2.2c0.7,0,1.5-0.3,1.5-0.5c0,0,0-0.1,0-0.1L39.9,28
		c0,0-0.1-0.1-0.1-0.1c-0.1,0-0.5,0.3-1.1,0.3c-0.8,0-0.9-0.6-0.9-1.1H40c0.2,0,0.2-0.1,0.2-0.2C40.2,26,40,24.7,38.5,24.7z
		 M37.8,26.4c0-0.2,0.1-0.9,0.7-0.9c0.6,0,0.6,0.6,0.6,0.9H37.8z"/>
	<path style="fill:#ffffff;fill-rule:evenodd;clip-rule:evenodd;" d="M43.3,28.1C43.3,28,43.3,28,43.3,28.1c-0.2-0.1-0.4,0.1-0.7,0.1c-0.3,0-0.3-0.2-0.3-0.5v-2h0.8
		c0.1,0,0.1,0,0.2-0.1l0.1-0.5c0,0,0-0.1,0-0.1c0-0.1-0.1-0.1-0.1-0.1h-1v-1.2c0-0.1,0-0.1-0.1-0.1c-0.1,0-0.1,0-0.1,0l-0.7,0.1
		c-0.1,0-0.1,0-0.1,0.2v1.1h-0.6c-0.1,0-0.1,0-0.1,0.1v0.5c0,0.1,0,0.1,0.1,0.1h0.6v1.9c0,0.8,0,1.6,1.1,1.6c0.6,0,1.2-0.2,1.2-0.3
		c0,0,0,0,0-0.1L43.3,28.1z"/>
	<path style="fill:#ffffff;fill-rule:evenodd;clip-rule:evenodd;" d="M48.7,24.8l-0.6-0.1c0,0-0.1,0-0.1,0c-0.1,0-0.1,0.1-0.1,0.2l-0.4,1.8c-0.1,0.5-0.1,0.9-0.2,1.4h0
		c0-0.4-0.1-0.9-0.2-1.3L46.7,25c0-0.1,0-0.1-0.2-0.1h-0.7c-0.1,0-0.1,0-0.2,0.1l-0.4,1.9c-0.1,0.3-0.2,1-0.2,1.3h0
		c0-0.5-0.1-1-0.2-1.4l-0.4-1.8c0-0.1-0.1-0.2-0.1-0.2c0,0-0.1,0-0.1,0l-0.6,0.1c-0.1,0-0.2,0-0.2,0.1c0,0,0,0.1,0,0.2l1,3.9
		c0,0.1,0.1,0.1,0.2,0.1h0.7c0.1,0,0.1-0.1,0.2-0.1l0.5-2.1c0.1-0.3,0.1-0.7,0.2-0.9h0c0,0.2,0.1,0.7,0.1,0.9l0.4,2.1
		c0,0.1,0,0.1,0.2,0.1h0.7c0.1,0,0.1,0,0.2-0.1l1.2-3.9c0-0.1,0-0.1,0-0.2C48.9,24.9,48.8,24.9,48.7,24.8z"/>
	<path style="fill:#ffffff;fill-rule:evenodd;clip-rule:evenodd;" d="M50.8,24.7c-1.1,0-1.8,0.9-1.8,2.2c0,1.4,0.7,2.2,1.8,2.2c1.1,0,1.8-0.9,1.8-2.2
		C52.6,25.6,51.9,24.7,50.8,24.7z M50.8,28.3c-0.6,0-0.7-0.6-0.7-1.4c0-0.8,0.1-1.4,0.7-1.4c0.6,0,0.7,0.6,0.7,1.4
		C51.5,27.7,51.4,28.3,50.8,28.3z"/>
	<path style="fill:#ffffff;fill-rule:evenodd;clip-rule:evenodd;" d="M55.4,24.7c-0.6,0-0.9,0.5-1,0.7c0-0.3-0.2-0.7-0.3-0.7c0,0-0.1,0-0.1,0L53.3,25c0,0-0.1,0-0.1,0.1
		c0,0.2,0.2,0.3,0.2,1.3v2.5c0,0.1,0,0.1,0.1,0.1h0.8c0.1,0,0.1,0,0.1-0.1v-2.8c0.1-0.1,0.4-0.4,0.6-0.4c0.2,0,0.3,0.1,0.4,0.1
		c0,0,0.1-0.1,0.1-0.1l0.3-0.7c0,0,0,0,0-0.1C55.9,24.8,55.6,24.7,55.4,24.7z"/>
	<path style="fill:#ffffff;fill-rule:evenodd;clip-rule:evenodd;" d="M58.2,26.7l1.4-1.3c0,0,0.1-0.1,0.1-0.1c0,0,0-0.1,0-0.1l-0.4-0.3c-0.1-0.1-0.1-0.1-0.2-0.1c0,0-0.1,0-0.1,0.1
		l-1.6,1.6v-3.3c0-0.1,0-0.2-0.1-0.2c0,0-0.1,0-0.1,0l-0.7,0.1c-0.1,0-0.2,0-0.2,0.2v5.6c0,0.1,0,0.1,0.1,0.1h0.8
		c0.1,0,0.1,0,0.1-0.1V27h0l1.5,2c0,0,0.1,0.1,0.1,0.1c0,0,0.1,0,0.1,0l0.7-0.4c0,0,0,0,0-0.1c0,0,0-0.1-0.1-0.1L58.2,26.7z"/>
	<path style="fill:#ffffff;fill-rule:evenodd;clip-rule:evenodd;" d="M62.4,26.8c-0.6-0.4-1.4-0.4-1.4-0.8c0-0.3,0.2-0.4,0.6-0.4c0.5,0,0.9,0.2,1,0.2c0,0,0.1,0,0.1-0.1l0.2-0.5
		c0,0,0-0.1,0-0.1c0-0.2-0.8-0.4-1.3-0.4c-0.9,0-1.5,0.6-1.5,1.4c0,0.5,0.2,0.8,0.5,0.9c0.6,0.4,1.4,0.4,1.4,0.9
		c0,0.3-0.2,0.4-0.5,0.4c-0.5,0-1.2-0.4-1.2-0.4c0,0,0,0-0.1,0.1L60,28.5c0,0,0,0.1,0,0.1c0,0.2,1,0.5,1.6,0.5
		c0.9,0,1.4-0.6,1.4-1.4C62.9,27.3,62.7,27,62.4,26.8z"/>
	<path style="fill:#ffffff;fill-rule:evenodd;clip-rule:evenodd;" d="M68.6,23.2c0-0.2-0.6-0.3-1-0.3c-1,0-1.3,0.7-1.3,1.6v0.3h-0.6c-0.1,0-0.2,0-0.2,0.2v0.4c0,0.2,0,0.2,0.2,0.2
		h0.6v3.2c0,0.2,0,0.2,0.2,0.2h0.7c0.1,0,0.2,0,0.2-0.2v-3.2h0.8c0.1,0,0.1,0,0.2-0.1l0.1-0.5c0,0,0-0.1,0-0.1
		c0-0.1-0.1-0.1-0.1-0.1h-1v-0.3c0-0.4,0-0.7,0.5-0.7c0.3,0,0.5,0.1,0.6,0.1c0,0,0.1-0.1,0.1-0.1L68.6,23.2
		C68.6,23.3,68.6,23.2,68.6,23.2z"/>
	<path style="fill:#ffffff;fill-rule:evenodd;clip-rule:evenodd;" d="M70.3,24.7c-1.1,0-1.8,0.9-1.8,2.2c0,1.4,0.7,2.2,1.8,2.2s1.8-0.9,1.8-2.2C72.2,25.6,71.5,24.7,70.3,24.7z
		 M70.3,28.3c-0.6,0-0.7-0.6-0.7-1.4c0-0.8,0.1-1.4,0.7-1.4c0.6,0,0.7,0.6,0.7,1.4C71,27.7,70.9,28.3,70.3,28.3z"/>
	<path style="fill:#ffffff;fill-rule:evenodd;clip-rule:evenodd;" d="M74.9,24.7c-0.6,0-0.9,0.5-1,0.7c0-0.3-0.2-0.7-0.3-0.7c0,0-0.1,0-0.1,0L72.8,25c0,0-0.1,0-0.1,0.1
		c0,0.2,0.2,0.3,0.2,1.3v2.5c0,0.1,0,0.1,0.1,0.1h0.8c0.1,0,0.1,0,0.1-0.1v-2.8c0.1-0.1,0.4-0.4,0.6-0.4c0.2,0,0.3,0.1,0.4,0.1
		c0,0,0.1-0.1,0.1-0.1l0.3-0.7c0,0,0,0,0-0.1C75.4,24.8,75.2,24.7,74.9,24.7z"/>
	<path style="fill:#ffffff;fill-rule:evenodd;clip-rule:evenodd;" d="M79.6,23.2h-1.4c-0.1,0-0.2,0-0.2,0.2v5.4c0,0.2,0,0.2,0.2,0.2h0.8c0.1,0,0.2,0,0.2-0.2v-2.1h0.4
		c0.9,0,1.9-0.5,1.9-1.9C81.6,23.2,80.3,23.2,79.6,23.2z M79.5,25.8h-0.3v-1.7h0.3c0.4,0,0.9,0,0.9,0.8C80.5,25.7,80,25.8,79.5,25.8
		z"/>
	<path style="fill:#ffffff;fill-rule:evenodd;clip-rule:evenodd;" d="M83.5,24.7c-1.1,0-1.8,0.9-1.8,2.3c0,1.5,0.8,2.2,1.9,2.2c0.7,0,1.5-0.3,1.5-0.5c0,0,0-0.1,0-0.1L84.9,28
		c0,0-0.1-0.1-0.1-0.1c-0.1,0-0.5,0.3-1.1,0.3c-0.8,0-0.9-0.6-0.9-1.1H85c0.2,0,0.2-0.1,0.2-0.2C85.2,26,85,24.7,83.5,24.7z
		 M82.8,26.4c0-0.2,0.1-0.9,0.7-0.9c0.6,0,0.6,0.6,0.6,0.9H82.8z"/>
	<path style="fill:#ffffff;fill-rule:evenodd;clip-rule:evenodd;" d="M87.6,24.7c-1.1,0-1.8,0.9-1.8,2.2c0,1.4,0.7,2.2,1.8,2.2c1.1,0,1.8-0.9,1.8-2.2
		C89.4,25.6,88.7,24.7,87.6,24.7z M87.6,28.3c-0.6,0-0.7-0.6-0.7-1.4c0-0.8,0.1-1.4,0.7-1.4c0.6,0,0.7,0.6,0.7,1.4
		C88.3,27.7,88.2,28.3,87.6,28.3z"/>
	<path style="fill:#ffffff;fill-rule:evenodd;clip-rule:evenodd;" d="M92.3,24.7c-0.6,0-0.9,0.3-1.1,0.4c-0.1-0.3-0.2-0.4-0.3-0.4c0,0-0.1,0-0.1,0l-0.6,0.2c-0.1,0-0.1,0.1-0.1,0.1
		c0,0.2,0.2,0.1,0.2,1.3v4.3c0,0.1,0,0.2,0.1,0.2c0,0,0.1,0,0.1,0l0.7-0.1c0.1,0,0.2,0,0.2-0.2v-1.5c0.2,0.1,0.4,0.2,0.9,0.2
		c1.1,0,1.5-0.8,1.5-2.3C93.7,25.4,93.2,24.7,92.3,24.7z M91.9,28.3c-0.3,0-0.5-0.1-0.6-0.2v-2.3c0.1-0.1,0.3-0.3,0.7-0.3
		c0.5,0,0.7,0.5,0.7,1.3C92.6,27.9,92.5,28.3,91.9,28.3z"/>
	<path style="fill:#ffffff;fill-rule:evenodd;clip-rule:evenodd;" d="M96.2,28.1C96.2,28.1,96.1,28.1,96.2,28.1c-0.1,0-0.2,0-0.4,0c-0.2,0-0.2-0.2-0.2-0.5v-4.6
		c0-0.1,0-0.2-0.1-0.2c0,0-0.1,0-0.1,0l-0.7,0.1c-0.1,0-0.2,0-0.2,0.2v4.3c0,0.8,0,1.6,1,1.6c0.4,0,0.8-0.1,0.8-0.2c0,0,0,0,0-0.1
		L96.2,28.1z"/>
	<path style="fill:#ffffff;fill-rule:evenodd;clip-rule:evenodd;" d="M98.4,24.7c-1.1,0-1.8,0.9-1.8,2.3c0,1.5,0.8,2.2,1.9,2.2c0.7,0,1.5-0.3,1.5-0.5c0,0,0-0.1,0-0.1L99.7,28
		c0,0,0-0.1-0.1-0.1c-0.1,0-0.5,0.3-1.1,0.3c-0.8,0-0.9-0.6-0.9-1.1h2.3c0.2,0,0.2-0.1,0.2-0.2C100.1,26,99.9,24.7,98.4,24.7z
		 M97.7,26.4c0-0.2,0.1-0.9,0.7-0.9c0.6,0,0.6,0.6,0.6,0.9H97.7z"/>
	<path style="fill:#ffffff;fill-rule:evenodd;clip-rule:evenodd;" d="M30.4,12l1.1-1.9c0.3-0.5,0.2-0.9-0.2-0.9h-5.6c-0.4,0-1,0.4-1.2,0.9L23.4,12c-0.3,0.5-0.2,0.9,0.2,0.9h5.6
		C29.6,12.9,30.1,12.5,30.4,12z"/>
	<path style="fill:#ffffff;fill-rule:evenodd;clip-rule:evenodd;" d="M49.3,6.4c1.3,0.1,5.4-0.4,6.6-2.3c1.2-2.1-1.2-3.7-3.3-3.5c-1,0.1-2.3,0.4-3.2,1.6c-0.9,1.2-1.1,2.8-1.1,3.3
		C48.2,6.1,48.9,6.4,49.3,6.4z"/>
	<path style="fill:#ffffff;fill-rule:evenodd;clip-rule:evenodd;" d="M77,18.7c-0.2,0-0.8-0.1-0.9-0.1c-0.3-0.3-0.4-0.5-0.4-1.2V8.9c0-2-0.7-3.7-2.8-3.8c-2.5-0.1-4.4,1.1-6.4,2
		c-0.1,0.1-0.4,0.2-0.4-0.1V5.3c0-0.2,0-0.9-0.7-0.6c-2.3,1.2-3.9,1.4-6.6,1.8c-0.2,0-0.3,0.1-0.3,0.3l-0.5,1
		c-0.1,0.3,0.1,0.3,0.3,0.3c0.5,0,1.2-0.1,1.2,0.6v8.9c-0.1,0.8-0.2,0.9-0.5,0.9c-0.1,0-0.1,0.1-0.2,0.2l-0.6,1.5
		c0,0.1,0.1,0.3,0.3,0.3h8.3c0.2,0,0.5-0.1,0.6-0.3l0.4-1.1c0.3-0.7-0.1-0.6-0.7-0.6c-0.9-0.1-0.8-0.5-0.8-0.8V11
		c0-2.2,2.7-2.1,2.7-0.4v8.1c0,0.7,0.5,2,2.2,2h5c0.2,0,0.4-0.1,0.5-0.3l0.5-1.3C77.2,18.9,77.2,18.7,77,18.7z"/>
	<path style="fill:#ffffff;fill-rule:evenodd;clip-rule:evenodd;" d="M100.3,1.3c-0.4-0.4-0.9-0.6-1.5-0.6c-0.6,0-1.1,0.2-1.5,0.6c-0.4,0.4-0.6,0.9-0.6,1.5c0,0.6,0.2,1.1,0.6,1.5
		C97.7,4.8,98.2,5,98.8,5c0.6,0,1.1-0.2,1.5-0.6c0.4-0.4,0.6-0.9,0.6-1.5C101,2.3,100.8,1.7,100.3,1.3z M100.2,4.2
		c-0.4,0.4-0.8,0.6-1.4,0.6c-0.5,0-1-0.2-1.4-0.6c-0.4-0.4-0.6-0.8-0.6-1.4c0-0.5,0.2-1,0.6-1.4c0.4-0.4,0.8-0.6,1.4-0.6
		c0.5,0,1,0.2,1.4,0.6c0.4,0.4,0.6,0.8,0.6,1.4C100.7,3.4,100.5,3.8,100.2,4.2z"/>
	<path style="fill:#ffffff;fill-rule:evenodd;clip-rule:evenodd;" d="M99.5,3.2c-0.1-0.1-0.1-0.2-0.2-0.2c0,0-0.1-0.1-0.2-0.1c0.2,0,0.4-0.1,0.5-0.2c0.1-0.1,0.2-0.3,0.2-0.5
		c0-0.2-0.1-0.3-0.2-0.4c-0.1-0.1-0.4-0.2-0.7-0.2H98v2.3h0.3v-1h0.2c0.2,0,0.4,0,0.4,0.1c0.1,0.1,0.2,0.2,0.4,0.5l0.2,0.4h0.4
		l-0.2-0.4C99.7,3.4,99.6,3.3,99.5,3.2z M98.6,2.7h-0.3V1.9h0.4c0.3,0,0.6,0,0.6,0.1c0.1,0.1,0.1,0.2,0.1,0.3c0,0.1,0,0.1-0.1,0.2
		c0,0.1-0.1,0.1-0.2,0.1C99.1,2.7,98.9,2.7,98.6,2.7z"/>
	<path style="fill:#ffffff;fill-rule:evenodd;clip-rule:evenodd;" d="M99.9,18.7c-1-0.1-2-0.1-3-0.8l-4.5-4.6c-0.6-0.6-0.8-0.9-0.1-1.8l3.3-3.7c0.1-0.1,0.2-0.2,0.5-0.2h0.3
		c0.4,0,0.4-0.1,0.5-0.2l0.8-1.1C97.9,6.1,97.8,6,97.7,6h-0.2h-6.2c-0.5,0-1.2,0.1-1.5,0.5l-2.9,3.7c-0.1,0.1-0.4,0.4-0.5,0V1.7
		c0-0.5-0.3-0.8-0.7-0.7c-0.1,0-0.2,0-0.3,0.1c-1.5,0.6-3.9,1.2-6.2,1.6c-0.3,0-0.5,0.1-0.7,0.3l-0.7,1.2c-0.1,0.2-0.1,0.5,0.3,0.5
		l1.2-0.2c0.3,0,0.4,0.1,0.4,0.6v12.5c0,1-0.2,1.2-0.9,1.2c-0.4,0-0.5,0.1-0.6,0.3l-0.5,1.4c-0.1,0.2,0.1,0.3,0.4,0.3h9.3
		c0.2,0,0.4-0.1,0.5-0.3l0.4-1.1c0.1-0.3,0.2-0.5-0.2-0.6c-1.3-0.1-1.6-0.3-1.6-1.2v-1.9c0-0.2,0.2-0.4,0.5-0.1
		c1.6,1.5,2.6,3.2,4.2,4.5c0.8,0.5,1.9,0.7,2.4,0.7H98c0.3,0,0.8-0.1,0.9-0.3l1.2-1.3C100.2,19,100.2,18.7,99.9,18.7z"/>
	<path style="fill:#ffffff;fill-rule:evenodd;clip-rule:evenodd;" d="M47.9,20.7h8.6c0.4,0,0.5-0.1,0.7-0.4l0.4-1.2c0.1-0.3-0.3-0.3-0.3-0.3c-0.7-0.1-0.9-0.3-1.1-1v-11
		C56.3,6.1,56,5.8,55.7,6c-1.9,1.1-4.4,1.7-6.8,1.9c0,0-0.2,0-0.4,0.3l-0.6,1.2c0,0.1-0.1,0.3,0.2,0.3c1.3-0.1,1.4-0.2,1.4,0.9v6.6
		c0,1.2-0.1,1.3-0.9,1.5c-0.3,0.1-0.3,0.2-0.4,0.3l-0.4,1.1C47.6,20.5,47.7,20.7,47.9,20.7z"/>
	<path style="fill:#ffffff;fill-rule:evenodd;clip-rule:evenodd;" d="M12.2,20.7c1.9,0,4.1,0.1,6.2-1.5c1.5-1,3.3-5,4-6.6c0.3-0.9,0.4-2,0-2.9c-1.1-2.6-2.8-5.5-3.9-6.6
		c-1.6-1.5-3-1.6-5.5-1.6H2.6c-0.4,0-0.9,0.1-1.1,0.4L0.7,3.3C0.6,3.9,1.3,3.9,1.3,3.9h1.1c0.3,0,0.3,0.2,0.3,0.5v12.9
		c0,0.6-0.7,0.9-1.2,1c-0.2,0.1-0.6,0.1-0.8,0.4L0,20.2c-0.1,0.3,0.1,0.5,0.3,0.5C4.5,20.7,8,20.7,12.2,20.7z M9.5,4.4
		c0-0.3,0.1-0.5,0.4-0.6h1c0.4,0,0.9-0.1,1.2,0.5l3.5,6.1c0.3,0.6,0.2,0.9,0,1.3l-3.5,6c-0.4,0.6-0.6,0.5-1.2,0.5c0,0,0,0,0,0H9.5
		V4.4z"/>
	<path style="fill:#ffffff;fill-rule:evenodd;clip-rule:evenodd;" d="M47,19.6v-6.2c-0.1-0.4-0.3-0.4-0.5-0.4l-1.8,0.6c-0.3,0.2-0.4,0.3-0.5,0.6c-0.5,1.9-0.4,4-2.5,4h-1.3
		c-0.6,0-0.9-0.5-0.9-1V5.1c0.1-1,0.5-1,1-1h0.1c0.8,0,0.9-0.3,0.9-0.3L42.4,2c0.1-0.2-0.1-0.4-0.5-0.4H31.5c-0.3,0-0.5,0-0.6,0.4
		l-0.8,1.5C29.9,3.8,30.3,4,30.8,4c0.3,0,0.6,0,0.9,0c0.8,0,0.9,0.5,0.9,1.2v11.4c0,1.8-0.7,1.8-1.9,1.9c-0.5,0-0.7,0.3-0.7,0.3
		l-0.6,1.3c-0.1,0.3,0,0.5,0.6,0.5h15.7C46.5,20.7,47,20.2,47,19.6z"/>
</g>
</svg>
