<?xml version="1.0" encoding="utf-8"?>
<!DOCTYPE svg PUBLIC "-//W3C//DTD SVG 1.1//EN" "http://www.w3.org/Graphics/SVG/1.1/DTD/svg11.dtd">
<svg version="1.1" xmlns="http://www.w3.org/2000/svg" xmlns:xlink="http://www.w3.org/1999/xlink" x="0px" y="0px" width="1024px" height="1024px" viewBox="0 0 1024 1024" enable-background="new 0 0 1024 1024" xml:space="preserve">
<metadata> Free Icon Download -- www.onlinewebfonts.com </metadata>

  <path d="M511.010463 63.329351c-247.173472 0-447.538873 200.381773-447.538873 447.538873 0 247.161193 200.3654 447.542966 447.538873 447.542966 247.161193 0 447.542966-200.381773 447.542966-447.542966C958.553429 263.711124 758.170632 63.329351 511.010463 63.329351zM511.010463 866.780259c-196.562794 0-355.907942-159.327752-355.907942-355.911012 0-196.580191 159.345148-355.907942 355.907942-355.907942 196.584284 0 355.911012 159.327752 355.911012 355.907942C866.921475 707.452507 707.594747 866.780259 511.010463 866.780259z" />
<path d="M512.424672 240.912885c-69.261457-3.296069-69.509097 90.337471-56.731072 181.247994 12.730952 90.550319 29.099758 174.166715 29.099758 174.166715 3.049452 15.262612 15.641235 21.285792 27.629267 20.904099 25.3739-0.809435 26.900673-21.309328 26.900673-21.309328s17.08512-87.592964 29.909194-176.203094C581.956282 331.817268 580.441788 244.151649 512.424672 240.912885z" />
<path d="M513.058099 729.23358m-54.920844 0a53.67 53.67 0 1 0 109.841687 0 53.67 53.67 0 1 0 -109.841687 0Z" />


</svg>