<?xml version="1.0" encoding="utf-8"?>
<!-- Generator: Adobe Illustrator 19.2.1, SVG Export Plug-In . SVG Version: 6.00 Build 0)  -->
<svg version="1.1" id="Layer_1" xmlns="http://www.w3.org/2000/svg" xmlns:xlink="http://www.w3.org/1999/xlink" x="0px" y="0px"
	 viewBox="0 0 24 24" style="enable-background:new 0 0 24 24;" xml:space="preserve">
<path fill="#006078" d="M8.5,17.3l2.8,2.8l2.7-2.7C12.6,15.9,10.1,15.9,8.5,17.3z"/>
<path fill="#C1C1C1" d="M5.7,14.5l1.4,1.4c2.3-2.2,6.1-2.2,8.4,0.1l1.4-1.4C13.8,11.5,8.8,11.5,5.7,14.5z"/>
<path fill="#C1C1C1" d="M2.9,11.7l1.4,1.4c3.9-3.8,10.2-3.8,14,0.1l1.4-1.4C15.1,7.1,7.6,7.1,2.9,11.7z"/>
<path fill="#C1C1C1" d="M0,8.8l1.4,1.4c5.5-5.4,14.3-5.3,19.7,0.1l1.4-1.4C16.3,2.7,6.3,2.7,0,8.8z"/>
</svg>
