<?xml version="1.0" encoding="utf-8"?>
<!-- Generator: Adobe Illustrator 19.2.1, SVG Export Plug-In . SVG Version: 6.00 Build 0)  -->
<svg version="1.1" id="Layer_1" xmlns="http://www.w3.org/2000/svg" xmlns:xlink="http://www.w3.org/1999/xlink" x="0px" y="0px"
	 viewBox="0 0 800 400" style="enable-background:new 0 0 800 400;" xml:space="preserve">
<style type="text/css">
	.st0{fill:none;stroke:#999999;stroke-width:3;stroke-miterlimit:10;}
	.st1{fill:#B7B7B7;}
	.st2{fill:#434343;}
	.st3{fill:#444444;}
	.st4{fill:#999999;}
</style>
<path class="st0" d="M335.5,340.1"/>
<path class="st0" d="M346.5,340.1"/>
<g>
	<rect x="527.5" y="328.6" class="st1" width="98" height="3"/>
</g>
<g>
	<path class="st2" d="M451.9,324.2c2.7,0,5.3,0.7,7.5,1.8l-5.7-9.1c-2.5-3.6-6.9-7.3-10.9-7.3h-75c-4,0-8.4,3.1-10.9,7.3l-5.7,9.1
		c2.2-1.2,4.8-1.8,7.5-1.8H451.9z"/>
	<path class="st2" d="M465.6,338.1c-1.2-6.5-6.9-11.5-13.7-11.5h-93.1c-6.8,0-12.5,5-13.7,11.5c-0.1,0.8-0.2,1.6-0.2,2.5
		c0,7.7,6.3,13.9,13.9,13.9h93.1c7.7,0,13.9-6.3,13.9-13.9C465.8,339.7,465.7,338.9,465.6,338.1z M365.5,341.1c0,2-1.6,3.7-3.7,3.7
		h-4.3c-2,0-3.7-1.6-3.7-3.7v0c0-2,1.6-3.7,3.7-3.7h4.3C363.8,337.5,365.5,339.1,365.5,341.1L365.5,341.1z M382.5,341.1
		c0,2-1.6,3.7-3.7,3.7h-4.3c-2,0-3.7-1.6-3.7-3.7v0c0-2,1.6-3.7,3.7-3.7h4.3C380.8,337.5,382.5,339.1,382.5,341.1L382.5,341.1z
		 M418.8,343.6c-1.4,0-2.5-1.1-2.5-2.5c0-1.4,1.1-2.5,2.5-2.5c1.4,0,2.5,1.1,2.5,2.5C421.3,342.5,420.1,343.6,418.8,343.6z
		 M427.2,343.6c-1.4,0-2.5-1.1-2.5-2.5c0-1.4,1.1-2.5,2.5-2.5c1.4,0,2.5,1.1,2.5,2.5C429.7,342.5,428.6,343.6,427.2,343.6z
		 M435.7,343.6c-1.4,0-2.5-1.1-2.5-2.5c0-1.4,1.1-2.5,2.5-2.5c1.4,0,2.5,1.1,2.5,2.5C438.2,342.5,437.1,343.6,435.7,343.6z
		 M444.2,343.6c-1.4,0-2.5-1.1-2.5-2.5c0-1.4,1.1-2.5,2.5-2.5c1.4,0,2.5,1.1,2.5,2.5C446.7,342.5,445.5,343.6,444.2,343.6z
		 M452.6,343.6c-1.4,0-2.5-1.1-2.5-2.5c0-1.4,1.1-2.5,2.5-2.5c1.4,0,2.5,1.1,2.5,2.5C455.1,342.5,454,343.6,452.6,343.6z"/>
	<path class="st2" d="M377.1,307.2l-1.2-48.7c0,0,0,0,0,0c0,0,0,0,0,0l0-0.1h0c-0.1-1.5-1.3-2.7-2.8-2.7c-1.5,0-2.7,1.2-2.8,2.7h0
		l0,0.1c0,0,0,0,0,0c0,0,0,0,0,0l-1.2,48.7H377.1z"/>
	<path class="st2" d="M441.5,307.2l-1.2-48.7c0,0,0,0,0,0c0,0,0,0,0,0l0-0.1h0c-0.1-1.5-1.3-2.7-2.8-2.7c-1.5,0-2.7,1.2-2.8,2.7h0
		l0,0.1c0,0,0,0,0,0c0,0,0,0,0,0l-1.2,48.7H441.5z"/>
</g>
<g>
	<path class="st2" d="M166.9,324.2c2.7,0,5.3,0.7,7.5,1.8l-5.7-9.1c-2.5-3.6-6.9-7.3-10.9-7.3h-75c-4,0-8.4,3.1-10.9,7.3l-5.7,9.1
		c2.2-1.2,4.8-1.8,7.5-1.8H166.9z"/>
	<path class="st2" d="M180.6,338.1c-1.2-6.5-6.9-11.5-13.7-11.5H73.8c-6.8,0-12.5,5-13.7,11.5c-0.1,0.8-0.2,1.6-0.2,2.5
		c0,7.7,6.3,13.9,13.9,13.9h93.1c7.7,0,13.9-6.3,13.9-13.9C180.8,339.7,180.7,338.9,180.6,338.1z M80.5,341.1c0,2-1.6,3.7-3.7,3.7
		h-4.3c-2,0-3.7-1.6-3.7-3.7v0c0-2,1.6-3.7,3.7-3.7h4.3C78.8,337.5,80.5,339.1,80.5,341.1L80.5,341.1z M97.5,341.1
		c0,2-1.6,3.7-3.7,3.7h-4.3c-2,0-3.7-1.6-3.7-3.7v0c0-2,1.6-3.7,3.7-3.7h4.3C95.8,337.5,97.5,339.1,97.5,341.1L97.5,341.1z
		 M133.8,343.6c-1.4,0-2.5-1.1-2.5-2.5c0-1.4,1.1-2.5,2.5-2.5c1.4,0,2.5,1.1,2.5,2.5C136.3,342.5,135.1,343.6,133.8,343.6z
		 M142.2,343.6c-1.4,0-2.5-1.1-2.5-2.5c0-1.4,1.1-2.5,2.5-2.5c1.4,0,2.5,1.1,2.5,2.5C144.7,342.5,143.6,343.6,142.2,343.6z
		 M150.7,343.6c-1.4,0-2.5-1.1-2.5-2.5c0-1.4,1.1-2.5,2.5-2.5c1.4,0,2.5,1.1,2.5,2.5C153.2,342.5,152.1,343.6,150.7,343.6z
		 M159.2,343.6c-1.4,0-2.5-1.1-2.5-2.5c0-1.4,1.1-2.5,2.5-2.5c1.4,0,2.5,1.1,2.5,2.5C161.7,342.5,160.5,343.6,159.2,343.6z
		 M167.6,343.6c-1.4,0-2.5-1.1-2.5-2.5c0-1.4,1.1-2.5,2.5-2.5c1.4,0,2.5,1.1,2.5,2.5C170.1,342.5,169,343.6,167.6,343.6z"/>
	<path class="st2" d="M156.5,307.2l-1.2-48.7c0,0,0,0,0,0c0,0,0,0,0,0l0-0.1h0c-0.1-1.5-1.3-2.7-2.8-2.7c-1.5,0-2.7,1.2-2.8,2.7h0
		l0,0.1c0,0,0,0,0,0c0,0,0,0,0,0l-1.2,48.7H156.5z"/>
</g>
<g>
	<path class="st3" d="M697.5,285.7h-68c-4.7,0-8.5,3.8-8.5,8.5V334c0,4.7,3.8,8.5,8.5,8.5h23.2v5.9h-12c-1.9,0-3.5,1.6-3.5,3.5
		s1.6,3.5,3.5,3.5h42c1.9,0,3.5-1.6,3.5-3.5s-1.6-3.5-3.5-3.5h-12v-5.9h26.8c4.7,0,8.5-3.8,8.5-8.5v-39.8
		C706,289.5,702.2,285.7,697.5,285.7z M701,334c0,1.9-1.6,3.5-3.5,3.5h-68c-1.9,0-3.5-1.6-3.5-3.5v-39.8c0-1.9,1.6-3.5,3.5-3.5h68
		c1.9,0,3.5,1.6,3.5,3.5V334z"/>
	<path class="st3" d="M740,285.7h-22.7c-3.8,0-7,3.2-7,7v54.2c0,3.8,3.2,7,7,7H740c3.8,0,7-3.2,7-7v-54.2
		C747,288.8,743.8,285.7,740,285.7z M728.2,342.6c-2.7,0-4.9-2.2-4.9-4.9s2.2-4.9,4.9-4.9s4.9,2.2,4.9,4.9S730.9,342.6,728.2,342.6z
		 M742.2,309c0,1.7-1.4,3-3,3h-21.1c-1.7,0-3-1.3-3-3v-1.5c0-1.7,1.3-3,3-3h21.1c1.6,0,3,1.3,3,3V309z M742.2,297c0,1.7-1.4,3-3,3
		h-21.1c-1.7,0-3-1.3-3-3v-1.5c0-1.7,1.3-3,3-3h21.1c1.6,0,3,1.3,3,3V297z"/>
</g>
<path class="st3" d="M722.8,97.2l-0.3-0.6c-1.6-3.3-2.9-6.2-6.2-7.1c1.6-1.6,2.7-3.9,2.7-6.4V47.3c0-4.7-3.8-8.5-8.5-8.5h-68
	c-4.7,0-8.5,3.8-8.5,8.5v35.8c0,2.6,1.1,4.8,3,6.3c-3.8,1-5.4,4.6-6.8,7.8l-4.3,9.3v0.5c0,2.9,0,8.9,7.5,8.9h88.1
	c3.9,0,5.8-3,5.8-8.9v-0.6L722.8,97.2z M694.1,96.8v1c0,1.1-0.9,2-2,2h-1.9c-1.1,0-2-0.9-2-2v-1c0-1.1,0.9-2,2-2h1.9
	C693.2,94.8,694.1,95.7,694.1,96.8z M686.2,96.7v1c0,1.1-0.9,2-2,2h-1.9c-1.1,0-2-0.9-2-2v-1c0-1.1,0.9-2,2-2h1.9
	C685.3,94.7,686.2,95.6,686.2,96.7z M678.2,96.7v1c0,1.1-0.9,2-2,2h-1.9c-1.1,0-2-0.9-2-2v-1c0-1.1,0.9-2,2-2h1.9
	C677.3,94.7,678.2,95.6,678.2,96.7z M670.2,96.7v1c0,1.1-0.9,2-2,2h-1.9c-1.1,0-2-0.9-2-2v-1c0-1.1,0.9-2,2-2h1.9
	C669.3,94.7,670.2,95.6,670.2,96.7z M662.2,96.7v1c0,1.1-0.9,2-2,2h-1.9c-1.1,0-2-0.9-2-2v-1c0-1.1,0.9-2,2-2h1.9
	C661.3,94.7,662.2,95.6,662.2,96.7z M639,47.3c0-1.9,1.6-3.5,3.5-3.5h68c1.9,0,3.5,1.6,3.5,3.5v35.8c0,2-1.6,3.5-2.5,3.5h-68
	c-2.7,0-4.5-1.4-4.5-3.5V47.3z M642.1,105.8c0,1.1-0.9,2-2,2h-1.9c-1.1,0-2-0.9-2-2v-1c0-1.1,0.9-2,2-2h1.9c1.1,0,2,0.9,2,2V105.8z
	 M642.3,99.7c-1.1,0-2-0.9-2-2v-1c0-1.1,0.9-2,2-2h1.9c1.1,0,2,0.9,2,2v1c0,1.1-0.9,2-2,2H642.3z M650.1,105.8c0,1.1-0.9,2-2,2h-1.9
	c-1.1,0-2-0.9-2-2v-1c0-1.1,0.9-2,2-2h1.9c1.1,0,2,0.9,2,2V105.8z M650.3,99.7c-1.1,0-2-0.9-2-2v-1c0-1.1,0.9-2,2-2h1.9
	c1.1,0,2,0.9,2,2v1c0,1.1-0.9,2-2,2H650.3z M698.1,105.8c0,1.1-0.9,2-2,2h-41.9c-1.1,0-2-0.9-2-2v-1c0-1.1,0.9-2,2-2h41.9
	c1.1,0,2,0.9,2,2V105.8z M698.2,99.8c-1.1,0-2-0.9-2-2v-1c0-1.1,0.9-2,2-2h1.9c1.1,0,2,0.9,2,2v1c0,1.1-0.9,2-2,2H698.2z
	 M706.1,105.8c0,1.1-0.9,2-2,2h-1.9c-1.1,0-2-0.9-2-2v-1c0-1.1,0.9-2,2-2h1.9c1.1,0,2,0.9,2,2V105.8z M706.2,99.8c-1.1,0-2-0.9-2-2
	v-1c0-1.1,0.9-2,2-2h1.9c1.1,0,2,0.9,2,2v1c0,1.1-0.9,2-2,2H706.2z M714.1,105.8c0,1.1-0.9,2-2,2h-1.9c-1.1,0-2-0.9-2-2v-1
	c0-1.1,0.9-2,2-2h1.9c1.1,0,2,0.9,2,2V105.8z"/>
<g>
	<path class="st3" d="M475.2,336h8.3v2.3h-11.1V319h2.8V336z"/>
	<path class="st3" d="M502.2,338.3h-2.2c-0.2,0-0.4-0.1-0.6-0.2c-0.2-0.1-0.3-0.3-0.4-0.5l-1.7-4.5h-8.6l-1.7,4.5
		c-0.1,0.2-0.2,0.3-0.3,0.5c-0.2,0.1-0.4,0.2-0.6,0.2h-2.2l7.7-19.4h2.8L502.2,338.3z M489.5,331.1h7.1l-2.9-7.6
		c-0.1-0.2-0.2-0.5-0.3-0.8c-0.1-0.3-0.2-0.7-0.3-1c-0.1,0.4-0.2,0.7-0.3,1.1c-0.1,0.3-0.2,0.6-0.3,0.9L489.5,331.1z"/>
	<path class="st3" d="M506.7,319c0.1,0.1,0.3,0.2,0.4,0.4l11,14.3c0-0.2,0-0.5,0-0.7c0-0.2,0-0.5,0-0.7V319h2.4v19.4h-1.4
		c-0.2,0-0.4,0-0.5-0.1c-0.1-0.1-0.3-0.2-0.4-0.4l-11-14.3c0,0.2,0,0.5,0,0.7s0,0.4,0,0.6v13.5h-2.4V319h1.4
		C506.4,319,506.5,319,506.7,319z"/>
</g>
<g>
	<path class="st1" d="M436,236.2c-0.8,0-1.5,0.7-1.5,1.5s0.7,1.5,1.5,1.5c9.6,0,17.5,7.8,17.5,17.5c0,0.8,0.7,1.5,1.5,1.5
		s1.5-0.7,1.5-1.5C456.4,245.4,447.2,236.2,436,236.2z"/>
	<path class="st1" d="M436,219.1c-0.8,0-1.5,0.7-1.5,1.5s0.7,1.5,1.5,1.5c19.1,0,34.6,15.5,34.6,34.6c0,0.8,0.7,1.5,1.5,1.5
		s1.5-0.7,1.5-1.5C473.5,235.9,456.7,219.1,436,219.1z"/>
	<path class="st1" d="M436,202c-0.8,0-1.5,0.7-1.5,1.5s0.7,1.5,1.5,1.5c28.5,0,51.6,23.2,51.6,51.6c0,0.8,0.7,1.5,1.5,1.5
		s1.5-0.7,1.5-1.5C490.6,226.5,466.1,202,436,202z"/>
</g>
<g>
	<path class="st1" d="M356.5,270.9c0.6,0.6,1.5,0.6,2.1,0s0.6-1.5,0-2.1c-6.8-6.8-6.8-17.9,0-24.7c0.6-0.6,0.6-1.5,0-2.1
		c-0.6-0.6-1.5-0.6-2.1,0C348.5,249.9,348.5,262.9,356.5,270.9z"/>
	<path class="st1" d="M344.4,283c0.6,0.6,1.5,0.6,2.1,0c0.6-0.6,0.6-1.5,0-2.1c-13.5-13.5-13.5-35.4,0-48.9c0.6-0.6,0.6-1.5,0-2.1
		s-1.5-0.6-2.1,0C329.8,244.5,329.8,268.3,344.4,283z"/>
	<path class="st1" d="M332.3,295.1c0.6,0.6,1.5,0.6,2.1,0c0.6-0.6,0.6-1.5,0-2.1c-20.1-20.1-20.1-52.9,0-73c0.6-0.6,0.6-1.5,0-2.1
		s-1.5-0.6-2.1,0C311,239.1,311,273.8,332.3,295.1z"/>
</g>
<g>
	<path class="st1" d="M168,241.9c-0.6-0.6-1.5-0.6-2.1,0s-0.6,1.5,0,2.1c6.8,6.8,6.8,17.9,0,24.7c-0.6,0.6-0.6,1.5,0,2.1
		c0.6,0.6,1.5,0.6,2.1,0C176,262.9,176,249.9,168,241.9z"/>
	<path class="st1" d="M180.1,229.9c-0.6-0.6-1.5-0.6-2.1,0c-0.6,0.6-0.6,1.5,0,2.1c13.5,13.5,13.5,35.4,0,48.9
		c-0.6,0.6-0.6,1.5,0,2.1s1.5,0.6,2.1,0C194.7,268.3,194.7,244.5,180.1,229.9z"/>
	<path class="st1" d="M192.1,217.8c-0.6-0.6-1.5-0.6-2.1,0c-0.6,0.6-0.6,1.5,0,2.1c20.1,20.1,20.1,52.9,0,73c-0.6,0.6-0.6,1.5,0,2.1
		s1.5,0.6,2.1,0C213.4,273.8,213.4,239.1,192.1,217.8z"/>
</g>
<g>
	<path class="st1" d="M630.1,131c0.8,0,1.5-0.7,1.5-1.5s-0.7-1.5-1.5-1.5c-9.6,0-17.5-7.8-17.5-17.5c0-0.8-0.7-1.5-1.5-1.5
		s-1.5,0.7-1.5,1.5C609.6,121.8,618.8,131,630.1,131z"/>
	<path class="st1" d="M630.1,145.1c-19.1,0-34.6-15.5-34.6-34.6c0-0.8-0.7-1.5-1.5-1.5s-1.5,0.7-1.5,1.5c0,20.7,16.9,37.6,37.6,37.6
		c0.8,0,1.5-0.7,1.5-1.5S630.9,145.1,630.1,145.1z"/>
	<path class="st1" d="M630.1,162.2c-28.5,0-51.6-23.2-51.6-51.6c0-0.8-0.7-1.5-1.5-1.5s-1.5,0.7-1.5,1.5c0,30.1,24.5,54.6,54.6,54.6
		c0.8,0,1.5-0.7,1.5-1.5S630.9,162.2,630.1,162.2z"/>
</g>
<g>
	<path class="st4" d="M246.6,247.5c-0.1,0.1-0.2,0.3-0.3,0.3c-0.1,0.1-0.2,0.1-0.4,0.1c-0.2,0-0.4-0.1-0.6-0.2s-0.5-0.3-0.8-0.5
		c-0.3-0.2-0.7-0.4-1.1-0.5c-0.4-0.2-1-0.2-1.6-0.2c-0.6,0-1.1,0.1-1.5,0.2c-0.4,0.2-0.8,0.4-1.1,0.6s-0.5,0.6-0.7,0.9
		c-0.2,0.4-0.2,0.8-0.2,1.2c0,0.5,0.1,1,0.4,1.3c0.3,0.3,0.6,0.6,1.1,0.9c0.4,0.3,0.9,0.5,1.5,0.7c0.6,0.2,1.1,0.4,1.7,0.6
		c0.6,0.2,1.2,0.4,1.7,0.7c0.6,0.3,1.1,0.6,1.5,1s0.8,0.9,1.1,1.4c0.3,0.6,0.4,1.2,0.4,2.1c0,0.9-0.1,1.7-0.4,2.4
		c-0.3,0.8-0.7,1.4-1.3,2c-0.6,0.6-1.3,1-2.1,1.3c-0.8,0.3-1.8,0.5-2.8,0.5c-0.6,0-1.2-0.1-1.8-0.2c-0.6-0.1-1.1-0.3-1.7-0.5
		c-0.5-0.2-1-0.5-1.5-0.8c-0.5-0.3-0.9-0.7-1.2-1.1l0.8-1.3c0.1-0.1,0.2-0.2,0.3-0.3c0.1-0.1,0.2-0.1,0.4-0.1c0.2,0,0.4,0.1,0.7,0.3
		s0.6,0.4,0.9,0.7c0.4,0.2,0.8,0.5,1.3,0.7c0.5,0.2,1.2,0.3,1.9,0.3c0.6,0,1.2-0.1,1.6-0.2c0.5-0.2,0.9-0.4,1.2-0.7s0.6-0.7,0.8-1.1
		c0.2-0.4,0.3-0.9,0.3-1.4c0-0.6-0.1-1.1-0.4-1.4c-0.3-0.4-0.6-0.7-1.1-0.9c-0.4-0.2-0.9-0.5-1.5-0.6c-0.6-0.2-1.1-0.4-1.7-0.5
		c-0.6-0.2-1.2-0.4-1.7-0.7c-0.6-0.2-1.1-0.6-1.5-1c-0.4-0.4-0.8-0.9-1.1-1.5s-0.4-1.3-0.4-2.2c0-0.7,0.1-1.4,0.4-2
		c0.3-0.7,0.7-1.2,1.2-1.7c0.5-0.5,1.2-0.9,1.9-1.2c0.8-0.3,1.6-0.5,2.6-0.5c1.1,0,2.1,0.2,3,0.5c0.9,0.3,1.7,0.8,2.4,1.5
		L246.6,247.5z"/>
	<path class="st4" d="M261.5,247.5c-0.1,0.1-0.2,0.3-0.3,0.3c-0.1,0.1-0.2,0.1-0.4,0.1c-0.2,0-0.4-0.1-0.6-0.2s-0.5-0.3-0.8-0.5
		c-0.3-0.2-0.7-0.4-1.1-0.5c-0.4-0.2-1-0.2-1.6-0.2c-0.6,0-1.1,0.1-1.5,0.2c-0.4,0.2-0.8,0.4-1.1,0.6s-0.5,0.6-0.7,0.9
		c-0.2,0.4-0.2,0.8-0.2,1.2c0,0.5,0.1,1,0.4,1.3c0.3,0.3,0.6,0.6,1.1,0.9c0.4,0.3,0.9,0.5,1.5,0.7c0.6,0.2,1.1,0.4,1.7,0.6
		c0.6,0.2,1.2,0.4,1.7,0.7c0.6,0.3,1.1,0.6,1.5,1s0.8,0.9,1.1,1.4c0.3,0.6,0.4,1.2,0.4,2.1c0,0.9-0.1,1.7-0.4,2.4
		c-0.3,0.8-0.7,1.4-1.3,2c-0.6,0.6-1.3,1-2.1,1.3c-0.8,0.3-1.8,0.5-2.8,0.5c-0.6,0-1.2-0.1-1.8-0.2c-0.6-0.1-1.1-0.3-1.7-0.5
		c-0.5-0.2-1-0.5-1.5-0.8c-0.5-0.3-0.9-0.7-1.2-1.1l0.8-1.3c0.1-0.1,0.2-0.2,0.3-0.3c0.1-0.1,0.2-0.1,0.4-0.1c0.2,0,0.4,0.1,0.7,0.3
		s0.6,0.4,0.9,0.7c0.4,0.2,0.8,0.5,1.3,0.7c0.5,0.2,1.2,0.3,1.9,0.3c0.6,0,1.2-0.1,1.6-0.2c0.5-0.2,0.9-0.4,1.2-0.7s0.6-0.7,0.8-1.1
		c0.2-0.4,0.3-0.9,0.3-1.4c0-0.6-0.1-1.1-0.4-1.4c-0.3-0.4-0.6-0.7-1.1-0.9c-0.4-0.2-0.9-0.5-1.5-0.6c-0.6-0.2-1.1-0.4-1.7-0.5
		c-0.6-0.2-1.2-0.4-1.7-0.7c-0.6-0.2-1.1-0.6-1.5-1c-0.4-0.4-0.8-0.9-1.1-1.5s-0.4-1.3-0.4-2.2c0-0.7,0.1-1.4,0.4-2
		c0.3-0.7,0.7-1.2,1.2-1.7c0.5-0.5,1.2-0.9,1.9-1.2c0.8-0.3,1.6-0.5,2.6-0.5c1.1,0,2.1,0.2,3,0.5c0.9,0.3,1.7,0.8,2.4,1.5
		L261.5,247.5z"/>
	<path class="st4" d="M269.1,264h-2.8v-19.7h2.8V264z"/>
	<path class="st4" d="M291.1,254.2c0,1.5-0.2,2.8-0.7,4c-0.5,1.2-1.1,2.2-2,3.1s-1.9,1.5-3.1,2c-1.2,0.5-2.5,0.7-4,0.7H274v-19.7
		h7.4c1.5,0,2.8,0.2,4,0.7c1.2,0.5,2.2,1.1,3.1,2c0.9,0.9,1.5,1.9,2,3.1C290.9,251.4,291.1,252.7,291.1,254.2z M288.2,254.2
		c0-1.2-0.2-2.2-0.5-3.2c-0.3-0.9-0.8-1.7-1.4-2.4s-1.3-1.1-2.2-1.5c-0.8-0.3-1.8-0.5-2.8-0.5h-4.5v15.1h4.5c1,0,2-0.2,2.8-0.5
		c0.8-0.3,1.6-0.8,2.2-1.5c0.6-0.6,1.1-1.4,1.4-2.4C288.1,256.4,288.2,255.3,288.2,254.2z"/>
</g>
<g>
	<path class="st4" d="M490.4,176.5c-0.1,0.1-0.2,0.3-0.3,0.3c-0.1,0.1-0.2,0.1-0.4,0.1c-0.2,0-0.4-0.1-0.6-0.2s-0.5-0.3-0.8-0.5
		c-0.3-0.2-0.7-0.4-1.1-0.5c-0.4-0.2-1-0.2-1.6-0.2c-0.6,0-1.1,0.1-1.5,0.2c-0.4,0.2-0.8,0.4-1.1,0.6c-0.3,0.3-0.5,0.6-0.7,0.9
		c-0.2,0.4-0.2,0.8-0.2,1.2c0,0.5,0.1,1,0.4,1.3s0.6,0.6,1.1,0.9c0.4,0.3,0.9,0.5,1.5,0.7c0.6,0.2,1.1,0.4,1.7,0.6
		c0.6,0.2,1.2,0.4,1.7,0.7c0.6,0.3,1.1,0.6,1.5,1s0.8,0.9,1.1,1.4c0.3,0.6,0.4,1.2,0.4,2.1c0,0.9-0.1,1.7-0.4,2.4
		c-0.3,0.8-0.7,1.4-1.3,2c-0.6,0.6-1.3,1-2.1,1.3s-1.8,0.5-2.8,0.5c-0.6,0-1.2-0.1-1.8-0.2c-0.6-0.1-1.1-0.3-1.7-0.5s-1-0.5-1.5-0.8
		c-0.5-0.3-0.9-0.7-1.2-1.1l0.8-1.3c0.1-0.1,0.2-0.2,0.3-0.3c0.1-0.1,0.2-0.1,0.4-0.1c0.2,0,0.4,0.1,0.7,0.3
		c0.3,0.2,0.6,0.4,0.9,0.7c0.4,0.2,0.8,0.5,1.3,0.7c0.5,0.2,1.2,0.3,1.9,0.3c0.6,0,1.2-0.1,1.6-0.2c0.5-0.2,0.9-0.4,1.2-0.7
		c0.3-0.3,0.6-0.7,0.8-1.1c0.2-0.4,0.3-0.9,0.3-1.4c0-0.6-0.1-1.1-0.4-1.4s-0.6-0.7-1.1-0.9s-0.9-0.5-1.5-0.6
		c-0.6-0.2-1.1-0.4-1.7-0.5c-0.6-0.2-1.2-0.4-1.7-0.7c-0.6-0.2-1.1-0.6-1.5-1c-0.4-0.4-0.8-0.9-1.1-1.5c-0.3-0.6-0.4-1.3-0.4-2.2
		c0-0.7,0.1-1.4,0.4-2c0.3-0.7,0.7-1.2,1.2-1.7s1.2-0.9,1.9-1.2c0.8-0.3,1.6-0.5,2.6-0.5c1.1,0,2.1,0.2,3,0.5s1.7,0.8,2.4,1.5
		L490.4,176.5z"/>
	<path class="st4" d="M505.3,176.5c-0.1,0.1-0.2,0.3-0.3,0.3c-0.1,0.1-0.2,0.1-0.4,0.1c-0.2,0-0.4-0.1-0.6-0.2s-0.5-0.3-0.8-0.5
		c-0.3-0.2-0.7-0.4-1.1-0.5c-0.4-0.2-1-0.2-1.6-0.2c-0.6,0-1.1,0.1-1.5,0.2c-0.4,0.2-0.8,0.4-1.1,0.6c-0.3,0.3-0.5,0.6-0.7,0.9
		c-0.2,0.4-0.2,0.8-0.2,1.2c0,0.5,0.1,1,0.4,1.3s0.6,0.6,1.1,0.9c0.4,0.3,0.9,0.5,1.5,0.7c0.6,0.2,1.1,0.4,1.7,0.6
		c0.6,0.2,1.2,0.4,1.7,0.7c0.6,0.3,1.1,0.6,1.5,1s0.8,0.9,1.1,1.4c0.3,0.6,0.4,1.2,0.4,2.1c0,0.9-0.1,1.7-0.4,2.4
		c-0.3,0.8-0.7,1.4-1.3,2c-0.6,0.6-1.3,1-2.1,1.3s-1.8,0.5-2.8,0.5c-0.6,0-1.2-0.1-1.8-0.2c-0.6-0.1-1.1-0.3-1.7-0.5s-1-0.5-1.5-0.8
		c-0.5-0.3-0.9-0.7-1.2-1.1l0.8-1.3c0.1-0.1,0.2-0.2,0.3-0.3c0.1-0.1,0.2-0.1,0.4-0.1c0.2,0,0.4,0.1,0.7,0.3
		c0.3,0.2,0.6,0.4,0.9,0.7c0.4,0.2,0.8,0.5,1.3,0.7c0.5,0.2,1.2,0.3,1.9,0.3c0.6,0,1.2-0.1,1.6-0.2c0.5-0.2,0.9-0.4,1.2-0.7
		c0.3-0.3,0.6-0.7,0.8-1.1c0.2-0.4,0.3-0.9,0.3-1.4c0-0.6-0.1-1.1-0.4-1.4s-0.6-0.7-1.1-0.9s-0.9-0.5-1.5-0.6
		c-0.6-0.2-1.1-0.4-1.7-0.5c-0.6-0.2-1.2-0.4-1.7-0.7c-0.6-0.2-1.1-0.6-1.5-1c-0.4-0.4-0.8-0.9-1.1-1.5c-0.3-0.6-0.4-1.3-0.4-2.2
		c0-0.7,0.1-1.4,0.4-2c0.3-0.7,0.7-1.2,1.2-1.7s1.2-0.9,1.9-1.2c0.8-0.3,1.6-0.5,2.6-0.5c1.1,0,2.1,0.2,3,0.5s1.7,0.8,2.4,1.5
		L505.3,176.5z"/>
	<path class="st4" d="M512.9,193h-2.8v-19.7h2.8V193z"/>
	<path class="st4" d="M534.9,183.2c0,1.5-0.2,2.8-0.7,4c-0.5,1.2-1.1,2.2-2,3.1c-0.9,0.9-1.9,1.5-3.1,2c-1.2,0.5-2.5,0.7-4,0.7h-7.4
		v-19.7h7.4c1.5,0,2.8,0.2,4,0.7c1.2,0.5,2.2,1.1,3.1,2c0.9,0.9,1.5,1.9,2,3.1C534.7,180.4,534.9,181.7,534.9,183.2z M532,183.2
		c0-1.2-0.2-2.2-0.5-3.2c-0.3-0.9-0.8-1.7-1.4-2.4c-0.6-0.6-1.3-1.1-2.2-1.5c-0.8-0.3-1.8-0.5-2.8-0.5h-4.5v15.1h4.5
		c1,0,2-0.2,2.8-0.5c0.8-0.3,1.6-0.8,2.2-1.5c0.6-0.6,1.1-1.4,1.4-2.4C531.9,185.4,532,184.4,532,183.2z"/>
	<path class="st4" d="M547.9,195.2v1.8h-10.8v-1.8H547.9z"/>
	<path class="st4" d="M563.4,173.3v2.3h-9.3v6.3h7.5v2.2h-7.5v6.5h9.3l0,2.3h-12.2v-19.7H563.4z"/>
	<path class="st4" d="M569.8,185.8l-4.7-6.8h2.5c0.2,0,0.4,0,0.5,0.1c0.1,0.1,0.2,0.2,0.3,0.3l3.3,5.1c0-0.1,0.1-0.3,0.2-0.4
		c0.1-0.1,0.1-0.3,0.2-0.4l2.9-4.3c0.1-0.1,0.2-0.2,0.3-0.3c0.1-0.1,0.2-0.1,0.4-0.1h2.4l-4.7,6.6l4.9,7.3h-2.5
		c-0.2,0-0.4-0.1-0.5-0.2c-0.1-0.1-0.2-0.2-0.3-0.4l-3.4-5.3c0,0.1-0.1,0.3-0.1,0.4c0,0.1-0.1,0.2-0.2,0.3l-3.1,4.6
		c-0.1,0.1-0.2,0.2-0.3,0.4c-0.1,0.1-0.3,0.2-0.4,0.2h-2.3L569.8,185.8z"/>
	<path class="st4" d="M584.6,193.2c-1.1,0-2-0.3-2.6-0.9s-0.9-1.5-0.9-2.7v-8.4h-1.6c-0.2,0-0.3,0-0.4-0.1c-0.1-0.1-0.2-0.2-0.2-0.4
		v-1l2.3-0.3l0.6-4.2c0-0.1,0.1-0.3,0.2-0.3c0.1-0.1,0.2-0.1,0.4-0.1h1.3v4.7h4v1.9h-4v8.2c0,0.6,0.1,1,0.4,1.3
		c0.3,0.3,0.6,0.4,1.1,0.4c0.2,0,0.5,0,0.6-0.1c0.2-0.1,0.3-0.1,0.5-0.2c0.1-0.1,0.2-0.2,0.3-0.2c0.1-0.1,0.2-0.1,0.3-0.1
		c0.1,0,0.1,0,0.2,0.1c0.1,0,0.1,0.1,0.2,0.2l0.8,1.2c-0.4,0.4-1,0.7-1.6,0.9C585.9,193.1,585.3,193.2,584.6,193.2z"/>
</g>
</svg>
