<?xml version="1.0" encoding="utf-8"?>
<!-- Generator: Adobe Illustrator 19.2.1, SVG Export Plug-In . SVG Version: 6.00 Build 0)  -->
<svg version="1.1" id="Layer_1" xmlns="http://www.w3.org/2000/svg" xmlns:xlink="http://www.w3.org/1999/xlink" x="0px" y="0px"
	 viewBox="0 0 800 400" style="enable-background:new 0 0 800 400;" xml:space="preserve">
<style type="text/css">
	.st0{fill:none;stroke:#999999;stroke-width:3;stroke-miterlimit:10;}
	.st1{fill:#B7B7B7;}
	.st2{fill:#434343;}
	.st3{fill:#444444;}
	.st4{fill:#999999;}
</style>
<path class="st0" d="M335.5,270.1"/>
<path class="st0" d="M346.5,270.1"/>
<g>
	<rect x="527.5" y="258.6" class="st1" width="98" height="3"/>
</g>
<g>
	<path class="st2" d="M451.9,254.2c2.7,0,5.3,0.7,7.5,1.8l-5.7-9.1c-2.5-3.6-6.9-7.3-10.9-7.3h-75c-4,0-8.4,3.1-10.9,7.3l-5.7,9.1
		c2.2-1.2,4.8-1.8,7.5-1.8H451.9z"/>
	<path class="st2" d="M465.6,268.1c-1.2-6.5-6.9-11.5-13.7-11.5h-93.1c-6.8,0-12.5,5-13.7,11.5c-0.1,0.8-0.2,1.6-0.2,2.5
		c0,7.7,6.3,13.9,13.9,13.9h93.1c7.7,0,13.9-6.3,13.9-13.9C465.8,269.7,465.7,268.9,465.6,268.1z M365.5,271.1c0,2-1.6,3.7-3.7,3.7
		h-4.3c-2,0-3.7-1.6-3.7-3.7v0c0-2,1.6-3.7,3.7-3.7h4.3C363.8,267.5,365.5,269.1,365.5,271.1L365.5,271.1z M382.5,271.1
		c0,2-1.6,3.7-3.7,3.7h-4.3c-2,0-3.7-1.6-3.7-3.7v0c0-2,1.6-3.7,3.7-3.7h4.3C380.8,267.5,382.5,269.1,382.5,271.1L382.5,271.1z
		 M418.8,273.6c-1.4,0-2.5-1.1-2.5-2.5c0-1.4,1.1-2.5,2.5-2.5c1.4,0,2.5,1.1,2.5,2.5C421.3,272.5,420.1,273.6,418.8,273.6z
		 M427.2,273.6c-1.4,0-2.5-1.1-2.5-2.5c0-1.4,1.1-2.5,2.5-2.5c1.4,0,2.5,1.1,2.5,2.5C429.7,272.5,428.6,273.6,427.2,273.6z
		 M435.7,273.6c-1.4,0-2.5-1.1-2.5-2.5c0-1.4,1.1-2.5,2.5-2.5c1.4,0,2.5,1.1,2.5,2.5C438.2,272.5,437.1,273.6,435.7,273.6z
		 M444.2,273.6c-1.4,0-2.5-1.1-2.5-2.5c0-1.4,1.1-2.5,2.5-2.5c1.4,0,2.5,1.1,2.5,2.5C446.7,272.5,445.5,273.6,444.2,273.6z
		 M452.6,273.6c-1.4,0-2.5-1.1-2.5-2.5c0-1.4,1.1-2.5,2.5-2.5c1.4,0,2.5,1.1,2.5,2.5C455.1,272.5,454,273.6,452.6,273.6z"/>
	<path class="st2" d="M377.1,237.2l-1.2-48.7c0,0,0,0,0,0c0,0,0,0,0,0l0-0.1h0c-0.1-1.5-1.3-2.7-2.8-2.7c-1.5,0-2.7,1.2-2.8,2.7h0
		l0,0.1c0,0,0,0,0,0c0,0,0,0,0,0l-1.2,48.7H377.1z"/>
	<path class="st2" d="M441.5,237.2l-1.2-48.7c0,0,0,0,0,0c0,0,0,0,0,0l0-0.1h0c-0.1-1.5-1.3-2.7-2.8-2.7c-1.5,0-2.7,1.2-2.8,2.7h0
		l0,0.1c0,0,0,0,0,0c0,0,0,0,0,0l-1.2,48.7H441.5z"/>
</g>
<g>
	<path class="st2" d="M166.9,254.2c2.7,0,5.3,0.7,7.5,1.8l-5.7-9.1c-2.5-3.6-6.9-7.3-10.9-7.3h-75c-4,0-8.4,3.1-10.9,7.3l-5.7,9.1
		c2.2-1.2,4.8-1.8,7.5-1.8H166.9z"/>
	<path class="st2" d="M180.6,268.1c-1.2-6.5-6.9-11.5-13.7-11.5H73.8c-6.8,0-12.5,5-13.7,11.5c-0.1,0.8-0.2,1.6-0.2,2.5
		c0,7.7,6.3,13.9,13.9,13.9h93.1c7.7,0,13.9-6.3,13.9-13.9C180.8,269.7,180.7,268.9,180.6,268.1z M80.5,271.1c0,2-1.6,3.7-3.7,3.7
		h-4.3c-2,0-3.7-1.6-3.7-3.7v0c0-2,1.6-3.7,3.7-3.7h4.3C78.8,267.5,80.5,269.1,80.5,271.1L80.5,271.1z M97.5,271.1
		c0,2-1.6,3.7-3.7,3.7h-4.3c-2,0-3.7-1.6-3.7-3.7v0c0-2,1.6-3.7,3.7-3.7h4.3C95.8,267.5,97.5,269.1,97.5,271.1L97.5,271.1z
		 M133.8,273.6c-1.4,0-2.5-1.1-2.5-2.5c0-1.4,1.1-2.5,2.5-2.5c1.4,0,2.5,1.1,2.5,2.5C136.3,272.5,135.1,273.6,133.8,273.6z
		 M142.2,273.6c-1.4,0-2.5-1.1-2.5-2.5c0-1.4,1.1-2.5,2.5-2.5c1.4,0,2.5,1.1,2.5,2.5C144.7,272.5,143.6,273.6,142.2,273.6z
		 M150.7,273.6c-1.4,0-2.5-1.1-2.5-2.5c0-1.4,1.1-2.5,2.5-2.5c1.4,0,2.5,1.1,2.5,2.5C153.2,272.5,152.1,273.6,150.7,273.6z
		 M159.2,273.6c-1.4,0-2.5-1.1-2.5-2.5c0-1.4,1.1-2.5,2.5-2.5c1.4,0,2.5,1.1,2.5,2.5C161.7,272.5,160.5,273.6,159.2,273.6z
		 M167.6,273.6c-1.4,0-2.5-1.1-2.5-2.5c0-1.4,1.1-2.5,2.5-2.5c1.4,0,2.5,1.1,2.5,2.5C170.1,272.5,169,273.6,167.6,273.6z"/>
	<path class="st2" d="M156.5,237.2l-1.2-48.7c0,0,0,0,0,0c0,0,0,0,0,0l0-0.1h0c-0.1-1.5-1.3-2.7-2.8-2.7c-1.5,0-2.7,1.2-2.8,2.7h0
		l0,0.1c0,0,0,0,0,0c0,0,0,0,0,0l-1.2,48.7H156.5z"/>
</g>
<g>
	<path class="st3" d="M697.5,215.7h-68c-4.7,0-8.5,3.8-8.5,8.5V264c0,4.7,3.8,8.5,8.5,8.5h23.2v5.9h-12c-1.9,0-3.5,1.6-3.5,3.5
		s1.6,3.5,3.5,3.5h42c1.9,0,3.5-1.6,3.5-3.5s-1.6-3.5-3.5-3.5h-12v-5.9h26.8c4.7,0,8.5-3.8,8.5-8.5v-39.8
		C706,219.5,702.2,215.7,697.5,215.7z M701,264c0,1.9-1.6,3.5-3.5,3.5h-68c-1.9,0-3.5-1.6-3.5-3.5v-39.8c0-1.9,1.6-3.5,3.5-3.5h68
		c1.9,0,3.5,1.6,3.5,3.5V264z"/>
	<path class="st3" d="M740,215.7h-22.7c-3.8,0-7,3.2-7,7v54.2c0,3.8,3.2,7,7,7H740c3.8,0,7-3.2,7-7v-54.2
		C747,218.8,743.8,215.7,740,215.7z M728.2,272.6c-2.7,0-4.9-2.2-4.9-4.9s2.2-4.9,4.9-4.9s4.9,2.2,4.9,4.9S730.9,272.6,728.2,272.6z
		 M742.2,239c0,1.7-1.4,3-3,3h-21.1c-1.7,0-3-1.3-3-3v-1.5c0-1.7,1.3-3,3-3h21.1c1.6,0,3,1.3,3,3V239z M742.2,227c0,1.7-1.4,3-3,3
		h-21.1c-1.7,0-3-1.3-3-3v-1.5c0-1.7,1.3-3,3-3h21.1c1.6,0,3,1.3,3,3V227z"/>
</g>
<g>
	<path class="st3" d="M475.2,266h8.3v2.3h-11.1V249h2.8V266z"/>
	<path class="st3" d="M502.2,268.3h-2.2c-0.2,0-0.4-0.1-0.6-0.2c-0.2-0.1-0.3-0.3-0.4-0.5l-1.7-4.5h-8.6l-1.7,4.5
		c-0.1,0.2-0.2,0.3-0.3,0.5c-0.2,0.1-0.4,0.2-0.6,0.2h-2.2l7.7-19.4h2.8L502.2,268.3z M489.5,261.1h7.1l-2.9-7.6
		c-0.1-0.2-0.2-0.5-0.3-0.8c-0.1-0.3-0.2-0.7-0.3-1c-0.1,0.4-0.2,0.7-0.3,1.1c-0.1,0.3-0.2,0.6-0.3,0.9L489.5,261.1z"/>
	<path class="st3" d="M506.7,249c0.1,0.1,0.3,0.2,0.4,0.4l11,14.3c0-0.2,0-0.5,0-0.7c0-0.2,0-0.5,0-0.7V249h2.4v19.4h-1.4
		c-0.2,0-0.4,0-0.5-0.1c-0.1-0.1-0.3-0.2-0.4-0.4l-11-14.3c0,0.2,0,0.5,0,0.7s0,0.4,0,0.6v13.5h-2.4V249h1.4
		C506.4,249,506.5,249,506.7,249z"/>
</g>
<g>
	<path class="st1" d="M356.5,200.9c0.6,0.6,1.5,0.6,2.1,0s0.6-1.5,0-2.1c-6.8-6.8-6.8-17.9,0-24.7c0.6-0.6,0.6-1.5,0-2.1
		c-0.6-0.6-1.5-0.6-2.1,0C348.5,179.9,348.5,192.9,356.5,200.9z"/>
	<path class="st1" d="M344.4,213c0.6,0.6,1.5,0.6,2.1,0c0.6-0.6,0.6-1.5,0-2.1c-13.5-13.5-13.5-35.4,0-48.9c0.6-0.6,0.6-1.5,0-2.1
		s-1.5-0.6-2.1,0C329.8,174.5,329.8,198.3,344.4,213z"/>
	<path class="st1" d="M332.3,225.1c0.6,0.6,1.5,0.6,2.1,0c0.6-0.6,0.6-1.5,0-2.1c-20.1-20.1-20.1-52.9,0-73c0.6-0.6,0.6-1.5,0-2.1
		s-1.5-0.6-2.1,0C311,169.1,311,203.8,332.3,225.1z"/>
</g>
<g>
	<path class="st1" d="M168,171.9c-0.6-0.6-1.5-0.6-2.1,0s-0.6,1.5,0,2.1c6.8,6.8,6.8,17.9,0,24.7c-0.6,0.6-0.6,1.5,0,2.1
		s1.5,0.6,2.1,0C176,192.9,176,179.9,168,171.9z"/>
	<path class="st1" d="M180.1,159.9c-0.6-0.6-1.5-0.6-2.1,0c-0.6,0.6-0.6,1.5,0,2.1c13.5,13.5,13.5,35.4,0,48.9
		c-0.6,0.6-0.6,1.5,0,2.1s1.5,0.6,2.1,0C194.7,198.3,194.7,174.5,180.1,159.9z"/>
	<path class="st1" d="M192.1,147.8c-0.6-0.6-1.5-0.6-2.1,0c-0.6,0.6-0.6,1.5,0,2.1c20.1,20.1,20.1,52.9,0,73c-0.6,0.6-0.6,1.5,0,2.1
		s1.5,0.6,2.1,0C213.4,203.8,213.4,169.1,192.1,147.8z"/>
</g>
<g>
	<path class="st4" d="M247.6,177.5c-0.1,0.1-0.2,0.3-0.3,0.3c-0.1,0.1-0.2,0.1-0.4,0.1c-0.2,0-0.4-0.1-0.6-0.2s-0.5-0.3-0.8-0.5
		c-0.3-0.2-0.7-0.4-1.1-0.5c-0.4-0.2-1-0.2-1.6-0.2c-0.6,0-1.1,0.1-1.5,0.2c-0.4,0.2-0.8,0.4-1.1,0.6s-0.5,0.6-0.7,0.9
		c-0.2,0.4-0.2,0.8-0.2,1.2c0,0.5,0.1,1,0.4,1.3c0.3,0.3,0.6,0.6,1.1,0.9c0.4,0.3,0.9,0.5,1.5,0.7c0.6,0.2,1.1,0.4,1.7,0.6
		c0.6,0.2,1.2,0.4,1.7,0.7c0.6,0.3,1.1,0.6,1.5,1s0.8,0.9,1.1,1.4c0.3,0.6,0.4,1.2,0.4,2.1c0,0.9-0.1,1.7-0.4,2.4
		c-0.3,0.8-0.7,1.4-1.3,2c-0.6,0.6-1.3,1-2.1,1.3c-0.8,0.3-1.8,0.5-2.8,0.5c-0.6,0-1.2-0.1-1.8-0.2c-0.6-0.1-1.1-0.3-1.7-0.5
		c-0.5-0.2-1-0.5-1.5-0.8c-0.5-0.3-0.9-0.7-1.2-1.1l0.8-1.3c0.1-0.1,0.2-0.2,0.3-0.3c0.1-0.1,0.2-0.1,0.4-0.1c0.2,0,0.4,0.1,0.7,0.3
		s0.6,0.4,0.9,0.7c0.4,0.2,0.8,0.5,1.3,0.7c0.5,0.2,1.2,0.3,1.9,0.3c0.6,0,1.2-0.1,1.6-0.2c0.5-0.2,0.9-0.4,1.2-0.7s0.6-0.7,0.8-1.1
		c0.2-0.4,0.3-0.9,0.3-1.4c0-0.6-0.1-1.1-0.4-1.4c-0.3-0.4-0.6-0.7-1.1-0.9c-0.4-0.2-0.9-0.5-1.5-0.6c-0.6-0.2-1.1-0.4-1.7-0.5
		c-0.6-0.2-1.2-0.4-1.7-0.7c-0.6-0.2-1.1-0.6-1.5-1c-0.4-0.4-0.8-0.9-1.1-1.5s-0.4-1.3-0.4-2.2c0-0.7,0.1-1.4,0.4-2
		c0.3-0.7,0.7-1.2,1.2-1.7c0.5-0.5,1.2-0.9,1.9-1.2c0.8-0.3,1.6-0.5,2.6-0.5c1.1,0,2.1,0.2,3,0.5c0.9,0.3,1.7,0.8,2.4,1.5
		L247.6,177.5z"/>
	<path class="st4" d="M262.5,177.5c-0.1,0.1-0.2,0.3-0.3,0.3c-0.1,0.1-0.2,0.1-0.4,0.1c-0.2,0-0.4-0.1-0.6-0.2s-0.5-0.3-0.8-0.5
		c-0.3-0.2-0.7-0.4-1.1-0.5c-0.4-0.2-1-0.2-1.6-0.2c-0.6,0-1.1,0.1-1.5,0.2c-0.4,0.2-0.8,0.4-1.1,0.6s-0.5,0.6-0.7,0.9
		c-0.2,0.4-0.2,0.8-0.2,1.2c0,0.5,0.1,1,0.4,1.3c0.3,0.3,0.6,0.6,1.1,0.9c0.4,0.3,0.9,0.5,1.5,0.7c0.6,0.2,1.1,0.4,1.7,0.6
		c0.6,0.2,1.2,0.4,1.7,0.7c0.6,0.3,1.1,0.6,1.5,1s0.8,0.9,1.1,1.4c0.3,0.6,0.4,1.2,0.4,2.1c0,0.9-0.1,1.7-0.4,2.4
		c-0.3,0.8-0.7,1.4-1.3,2c-0.6,0.6-1.3,1-2.1,1.3c-0.8,0.3-1.8,0.5-2.8,0.5c-0.6,0-1.2-0.1-1.8-0.2c-0.6-0.1-1.1-0.3-1.7-0.5
		c-0.5-0.2-1-0.5-1.5-0.8c-0.5-0.3-0.9-0.7-1.2-1.1l0.8-1.3c0.1-0.1,0.2-0.2,0.3-0.3c0.1-0.1,0.2-0.1,0.4-0.1c0.2,0,0.4,0.1,0.7,0.3
		s0.6,0.4,0.9,0.7c0.4,0.2,0.8,0.5,1.3,0.7c0.5,0.2,1.2,0.3,1.9,0.3c0.6,0,1.2-0.1,1.6-0.2c0.5-0.2,0.9-0.4,1.2-0.7s0.6-0.7,0.8-1.1
		c0.2-0.4,0.3-0.9,0.3-1.4c0-0.6-0.1-1.1-0.4-1.4c-0.3-0.4-0.6-0.7-1.1-0.9c-0.4-0.2-0.9-0.5-1.5-0.6c-0.6-0.2-1.1-0.4-1.7-0.5
		c-0.6-0.2-1.2-0.4-1.7-0.7c-0.6-0.2-1.1-0.6-1.5-1c-0.4-0.4-0.8-0.9-1.1-1.5s-0.4-1.3-0.4-2.2c0-0.7,0.1-1.4,0.4-2
		c0.3-0.7,0.7-1.2,1.2-1.7c0.5-0.5,1.2-0.9,1.9-1.2c0.8-0.3,1.6-0.5,2.6-0.5c1.1,0,2.1,0.2,3,0.5c0.9,0.3,1.7,0.8,2.4,1.5
		L262.5,177.5z"/>
	<path class="st4" d="M270.1,194h-2.8v-19.7h2.8V194z"/>
	<path class="st4" d="M292.1,184.2c0,1.5-0.2,2.8-0.7,4c-0.5,1.2-1.1,2.2-2,3.1s-1.9,1.5-3.1,2c-1.2,0.5-2.5,0.7-4,0.7H275v-19.7
		h7.4c1.5,0,2.8,0.2,4,0.7c1.2,0.5,2.2,1.1,3.1,2c0.9,0.9,1.5,1.9,2,3.1C291.9,181.4,292.1,182.7,292.1,184.2z M289.2,184.2
		c0-1.2-0.2-2.2-0.5-3.2c-0.3-0.9-0.8-1.7-1.4-2.4s-1.3-1.1-2.2-1.5c-0.8-0.3-1.8-0.5-2.8-0.5h-4.5v15.1h4.5c1,0,2-0.2,2.8-0.5
		c0.8-0.3,1.6-0.8,2.2-1.5c0.6-0.6,1.1-1.4,1.4-2.4C289.1,186.4,289.2,185.3,289.2,184.2z"/>
</g>
</svg>
